<?xml version="1.0" encoding="utf-8" ?><svg xmlns="http://www.w3.org/2000/svg" xmlns:xlink="http://www.w3.org/1999/xlink" width="1024" height="1024" viewBox="0 0 1024 1024"><path fill="#FDFDFD" d="M387.823 277.577C403.314 276.365 407.686 286.187 414.926 297.383C419.41 304.316 423.563 311.464 427.931 318.459L471.478 388.597L615.758 623.634L663.654 702.298C671.172 714.581 681.416 732.569 689.754 743.78C679.334 743.353 668.751 743.732 658.467 743.58C632.301 743.194 600.375 746.991 579.712 727.38C567.665 715.947 558.123 697.336 549.422 683.002C539.352 666.606 529.439 650.113 519.686 633.526L408.25 633.771C362.999 633.67 316.657 634.445 271.529 633.724L245.262 680.067C237.411 693.799 229.889 708.361 218.955 719.74C204.45 734.837 187.552 744.281 166.484 745.641C159.759 746.076 153.087 745.864 146.343 745.846C133.334 745.737 120.324 745.777 107.316 745.965C110.871 738.799 117.14 728.98 121.277 721.804L149.386 672.766C180.073 618.725 211.134 564.898 242.57 511.289C271.572 460.448 300.945 409.819 330.685 359.406L356.91 315.108C362.53 305.516 368.139 295.706 373.934 286.215C376.944 281.285 382.243 278.648 387.823 277.577ZM323.02 547.915C332.247 548.588 343.63 548.248 352.992 548.214L394.375 548.188C416.693 548.187 443.062 548.899 464.945 547.964C462.904 543.193 458.161 536.406 455.298 531.698L435.345 498.709C425.499 482.103 415.563 465.551 405.538 449.053C403.219 445.233 395.278 431.618 392.827 428.828C387.844 435.615 379.495 450.926 375.001 458.646C364.265 476.846 353.658 495.121 343.181 513.471C338.904 520.787 334.576 528.073 330.198 535.33C328.223 538.618 324.365 544.591 323.02 547.915Z"/><path fill="#FDFDFD" d="M460.251 279.461L690.393 279.607L759.09 279.554C776.82 279.544 794.011 278.718 811.607 281.646C868.882 291.782 910.308 338.805 915.9 396.251C922.49 463.957 878.422 525.104 812.452 540.772C803.321 542.941 792.939 543.293 783.49 543.815C784.696 547.267 790.309 556.091 792.441 559.571C798.341 569.079 804.193 578.617 809.996 588.184L869.806 687.969C880.772 706.065 893.377 725.782 903.862 743.947C879.848 744 855.765 744.055 831.749 743.934C814.878 743.849 805.42 737.587 794.096 725.831C789.665 720.949 784.252 711.45 780.828 705.635C776.259 697.866 771.626 690.135 766.93 682.442C738.162 636.204 710.466 588.989 681.502 542.974C662.407 543.102 643.31 543.118 624.214 543.022C620.192 536.96 616.798 530.897 612.984 524.733C605.11 512.238 597.348 499.673 589.7 487.039C585.137 479.547 574.241 462.865 570.999 456.082C576.493 455.82 584.165 456.111 589.788 456.148L624.089 456.244L737.787 456.195L773.035 456.157C785.053 456.124 794.178 457.169 805.395 451.852C843.663 433.936 838.71 374.507 796.261 366.083C787.667 364.377 772.747 365.022 763.526 364.948C743.424 364.774 723.321 364.719 703.218 364.782L513.791 364.903C510.041 360.682 502.047 346.607 498.515 341.03C489.955 327.676 481.541 314.229 473.274 300.692C469.033 293.848 464.155 286.426 460.251 279.461Z"/></svg>